# xmcd
#
# Track frame offsets:
#	150
#	33273
#	80191
#	105076
#	139050
#
# Disc length: 2282 seconds
#
# Revision: 0
# Processed by: cddbd v1.5.2PL0 Copyright (c) Steve Scherf et al.
# Submitted via: audiograbber 1.83.01
#
DISCID=3508e805
DTITLE=Grateful Dead - 94-12-19 Los Angeles Sports Arena, Los Angeles CA
DYEAR=1900
DGENRE=
TTITLE0=Saint Of Circumstance
TTITLE1=New Speedway Boogie
TTITLE2=Nobody's Fault But Mine
TTITLE3=Men Smart, Women Smarter
TTITLE4=Drums
EXTD=
EXTT0=
EXTT1=
EXTT2=
EXTT3=
EXTT4=
PLAYORDER=
